inDegrees=yes
name=ik_tiny_file
DataType=double
version=3
OpenSimVersion=4.4-2022-07-23-0e9fedc
endheader
time	pelvis_tilt	pelvis_list	pelvis_rotation	pelvis_tx	pelvis_ty	pelvis_tz	hip_flexion_r	hip_adduction_r	hip_rotation_r	knee_angle_r	knee_angle_r_beta	ankle_angle_r	subtalar_angle_r	mtp_angle_r	hip_flexion_l	hip_adduction_l	hip_rotation_l	knee_angle_l	knee_angle_l_beta	ankle_angle_l	subtalar_angle_l	mtp_angle_l	lumbar_extension	lumbar_bending	lumbar_rotation	arm_flex_r	arm_add_r	arm_rot_r	elbow_flex_r	pro_sup_r	wrist_flex_r	wrist_dev_r	arm_flex_l	arm_add_l	arm_rot_l	elbow_flex_l	pro_sup_l	wrist_flex_l	wrist_dev_l
9.119999999999999	4.212956349207294	-3.042878732458724	-2.789405840405069	0	0.9399999999999999	0	44.35251663488474	-10.01447299465736	0	60.25623492827796	1.05166969435366	-4.994082321577357	0	0	44.35251663488474	-10.01447299465736	0	60.25623492827796	1.05166969435366	-4.994082321577357	0	0	0.2154789130863558	1.853236374401431	5.624767968475036	22.66552024782998	-5.238830208592261	8.972724106184781	11.6283543261233	44.99060312943842	0	5.00036811906838	-0.9603661707942406	-0.4182718019688089	0.3140734216007183	0.1923777856669164	44.99060312943842	0	5.00036811906838
9.140000000000001	4.268697477081498	-3.018713909523554	-2.772774976436637	0	0.9399999999999999	0	44.35276738443544	-10.0144533552297	0	60.25615728051168	1.051668339144481	-4.9940855008102	0	0	44.35276738443544	-10.0144533552297	0	60.25615728051168	1.051668339144481	-4.9940855008102	0	0	0.06708631044862033	1.771299773353323	5.471432544659515	21.55692789269821	-5.20670001330136	8.819356670442874	11.43337801830862	44.99061321125409	0	5.000367232871866	-0.8835081244773122	-0.423563657583634	0.2346783716687222	0.1924299634368035	44.99061321125409	0	5.000367232871866
9.16	4.280174372970552	-2.973880739427297	-2.781026713077872	0	0.9399999999999999	0	44.35304866094089	-10.01443134227982	0	60.25607019061214	1.051666819138989	-4.994089066768981	0	0	44.35304866094089	-10.01443134227982	0	60.25607019061214	1.051666819138989	-4.994089066768981	0	0	-0.05241845661275837	1.660380566828957	5.316731074419447	20.52931179232168	-5.240100416439213	8.48895226372581	11.34657024354575	44.99062451448712	0	5.000366240612118	-0.8144502220516535	-0.4518256400587778	0.1656063921262077	0.1950356733538904	44.99062451448712	0	5.000366240612118
9.18	4.318099940863845	-2.949783995486932	-2.808173156994132	0	0.9399999999999999	0	44.3533390492944	-10.01440864555012	0	60.25598025510056	1.051665249468198	-4.994092747414218	0	0	44.3533390492944	-10.01440864555012	0	60.25598025510056	1.051665249468198	-4.994092747414218	0	0	-0.2142559506127594	1.610443219472009	5.235782956790832	19.31924195404902	-5.245814029786794	7.876329959758975	11.51647399971876	44.99063617293771	0	5.000365218808988	-0.7225066416692646	-0.5113583094264249	0.08862756450047694	0.19767151924239	44.99063617293771	0	5.000365218808988
9.199999999999999	4.307677306834749	-2.958815202455275	-2.845197771713532	0	0.9399999999999999	0	44.3535569690941	-10.01439163778802	0	60.25591273279855	1.051664070981709	-4.994095508753782	0	0	44.3535569690941	-10.01439163778802	0	60.25591273279855	1.051664070981709	-4.994095508753782	0	0	-0.4098601851415327	1.568761502509913	5.181480335043338	18.45304264108555	-5.231499904557936	7.495212306799676	11.28042003428529	44.99064491244774	0	5.000364454093537	-0.5613272423178857	-0.5651708048290093	-0.007522103819656657	0.1963308077872714	44.99064491244774	0	5.000364454093537
9.220000000000001	4.250734028877775	-2.977139606972691	-2.89137599286555	0	0.9399999999999999	0	44.35371026188479	-10.01437969410261	0	60.25586519603724	1.051663241308708	-4.994097450457371	0	0	44.35371026188479	-10.01437969410261	0	60.25586519603724	1.051663241308708	-4.994097450457371	0	0	-0.5116264198744187	1.53393432277613	5.072520103491724	17.82759083024225	-5.067821400205514	7.507656044609552	10.72316714598787	44.99065105212549	0	5.000363917711861	-0.4476512672645994	-0.5927818173607686	-0.1114048294358266	0.196583668818494	44.99065105212549	0	5.000363917711861
9.24	4.141164299317531	-2.976876957519856	-2.93220248386902	0	0.9399999999999999	0	44.35395602754252	-10.01436053766023	0	60.25578904816277	1.05166191227758	-4.994100564098348	0	0	44.35395602754252	-10.01436053766023	0	60.25578904816277	1.05166191227758	-4.994100564098348	0	0	-0.4289652071101587	1.469265407551609	4.846444563341698	17.23019793948562	-4.755729565427619	7.869285018711914	9.861253019463497	44.99066089967224	0	5.00036305769944	-0.4273275435578249	-0.7172410791352141	-0.3746687449861951	0.1993930748523125	44.99066089967224	0	5.00036305769944
9.26	4.086445759650029	-2.954963541156255	-2.949698366137975	0	0.9399999999999999	0	44.35427979142283	-10.01433531976265	0	60.25568875530998	1.051660161837083	-4.994104665644675	0	0	44.35427979142283	-10.01433531976265	0	60.25568875530998	1.051660161837083	-4.994104665644675	0	0	-0.361472717121637	1.409590434740775	4.590810574549042	16.8972652834449	-4.481293152728353	8.949440393258715	8.530925487657322	44.99067386649922	0	5.000361926748248	-0.4419768956273123	-0.8356668425198522	-0.5669334359417679	0.1924753903597456	44.99067386649922	0	5.000361926748248
9.279999999999999	4.065173903762706	-2.938913064398653	-2.963469689260121	0	0.9399999999999999	0	44.35463152509037	-10.01430795218701	0	60.25557980921568	1.05165826036903	-4.994109120936896	0	0	44.35463152509037	-10.01430795218701	0	60.25557980921568	1.05165826036903	-4.994109120936896	0	0	-0.3619199302143144	1.345629672959181	4.345662890834496	16.7039505473489	-4.315881020390238	10.14216631136313	7.218704815093894	44.99068794346429	0	5.00036070101806	-0.4929058536916944	-0.8890839725938462	-0.6628797785573233	0.1951962657170782	44.99068794346429	0	5.00036070101806
9.300000000000001	4.039690236508132	-2.943457341648438	-2.997556516388789	0	0.9399999999999999	0	44.35485814381738	-10.01429034711154	0	60.25550958437772	1.051657034714391	-4.994111990594799	0	0	44.35485814381738	-10.01429034711154	0	60.25550958437772	1.051657034714391	-4.994111990594799	0	0	-0.4058917382416906	1.288004269522515	4.236291564225191	16.24174661065703	-4.053598274109514	10.80849552367063	6.2976393031797	44.99069700261607	0	5.000359913628794	-0.5242648734993398	-0.8711950984501106	-0.6640591718408818	0.2012487194914043	44.99069700261607	0	5.000359913628794
9.32	4.022993285472023	-2.939554759618815	-3.000691644172631	0	0.9399999999999999	0	44.35514130810706	-10.01426836897246	0	60.25542183547536	1.05165550320713	-4.994115575820787	0	0	44.35514130810706	-10.01426836897246	0	60.25542183547536	1.05165550320713	-4.994115575820787	0	0	-0.4667175272356892	1.208008599771322	4.083331183546728	15.26911557320138	-3.788624999438352	11.44614363196378	6.000526712331622	44.99070831512496	0	5.000358931670077	-0.478206912813176	-0.8918859914029468	-0.7638208115984094	0.2058846627113337	44.99070831512496	0	5.000358931670077
9.34	4.001218441476786	-2.925645608804126	-3.002497118784726	0	0.9399999999999999	0	44.35547281561079	-10.014242659846	0	60.25531912504247	1.0516537105719	-4.994119772779865	0	0	44.35547281561079	-10.014242659846	0	60.25531912504247	1.0516537105719	-4.994119772779865	0	0	-0.4692356746221151	1.120415772983304	3.88190073668633	14.31759512599201	-3.565519340334948	12.14269229464979	5.573054877085553	44.99072155179667	0	5.000357784326428	-0.4612278768147427	-0.9777827600226946	-0.9873966166251394	0.2133402045025187	44.99072155179667	0	5.000357784326428
9.359999999999999	3.940978621005756	-2.929983108561006	-3.009583721821338	0	0.9399999999999999	0	44.35575389849217	-10.01422089639129	0	60.25523199772301	1.051652189913307	-4.994123330277585	0	0	44.35575389849217	-10.01422089639129	0	60.25523199772301	1.051652189913307	-4.994123330277585	0	0	-0.4230243866986445	1.051848454297273	3.722669176970566	13.41543035357788	-3.33324409828177	12.38379288217939	5.354035932064039	44.99073276170919	0	5.00035681447793	-0.4606345602978982	-1.044232050027978	-1.150777293216913	0.21950135534785	44.99073276170919	0	5.00035681447793
9.380000000000001	3.934161511348839	-2.927770081573278	-2.975122444762496	0	0.9399999999999999	0	44.35603313969087	-10.01419930808402	0	60.2551454039795	1.051650678567371	-4.99412686346894	0	0	44.35603313969087	-10.01419930808402	0	60.2551454039795	1.051650678567371	-4.99412686346894	0	0	-0.4620757421418597	1.022422580734806	3.591769984309346	12.49632571694149	-3.013097640415857	11.49947598831007	5.322734835452681	44.99074388577524	0	5.000355853730703	-0.3822344329886544	-1.018251928365108	-1.23778595912769	0.2238893186723335	44.99074388577524	0	5.000355853730703
9.4	3.933738393027236	-2.91147385238341	-2.965187400280838	0	0.9399999999999999	0	44.35635044383381	-10.01417479877645	0	60.25504701777295	1.051648961404128	-4.994130877840863	0	0	44.35635044383381	-10.01417479877645	0	60.25504701777295	1.051648961404128	-4.994130877840863	0	0	-0.500176549856209	0.9619287774880956	3.582098237474634	11.58196516602627	-2.776214550452544	10.26664438971376	5.264127217454519	44.99075651863826	0	5.00035476422963	-0.3364275938475658	-1.018919808884229	-1.21819514829871	0.2254658229822719	44.99075651863826	0	5.00035476422963
9.42	3.968198348267721	-2.875214860261086	-2.968630281052145	0	0.9399999999999999	0	44.35677078192685	-10.01414235936114	0	60.25491673126857	1.051646687475656	-4.994136195411228	0	0	44.35677078192685	-10.01414235936114	0	60.25491673126857	1.051646687475656	-4.994136195411228	0	0	-0.5642666538774614	0.8918371773352998	3.620523926694494	10.48168656514292	-2.462320072748305	8.811314369075573	5.327335656360228	44.99077324442207	0	5.000353324188555	-0.3110635562244261	-1.033431661728614	-1.160072068174978	0.2248206901717958	44.99077324442207	0	5.000353324188555
9.44	4.026782901451318	-2.891615865665969	-2.88722811062352	0	0.9399999999999999	0	44.35691530879717	-10.01413124956097	0	60.25487182994092	1.05164590379965	-4.994138022063067	0	0	44.35691530879717	-10.01413124956097	0	60.25487182994092	1.05164590379965	-4.994138022063067	0	0	-0.7190322219958024	0.9169625989914071	3.437801120763806	9.811358021106521	-2.27595955741508	7.93503723528679	4.99580268295857	44.99077897743336	0	5.000352832188888	-0.217806976423074	-0.9844452836930719	-1.230516079121958	0.2263142406048295	44.99077897743336	0	5.000352832188888
